<svg width="134" height="156" viewBox="0 0 134 156" fill="none" xmlns="http://www.w3.org/2000/svg">
<path d="M58.8726 0C58.8726 5.61 58.8726 11.22 58.8726 17C57.4288 17.2269 55.9851 17.4538 54.4976 17.6875C40.9416 20.4751 30.864 29.041 23.3413 40.4492C16.9221 51.5975 14.8961 64.1243 17.7085 76.7539C21.8645 90.1282 28.7789 101.368 37.8726 112C38.3122 112.561 38.7517 113.121 39.2046 113.699C42.6197 118.051 46.6291 121.493 50.8726 125C51.4225 125.462 51.9725 125.925 52.5391 126.401C54.3884 127.949 56.2533 129.476 58.1226 131C58.7251 131.506 59.3277 132.011 59.9485 132.532C61.8787 134.128 61.8787 134.128 64.8726 136C69.0221 135.49 71.8124 133.024 74.9976 130.5C75.5709 130.05 76.1442 129.6 76.7349 129.136C93.9548 115.493 111.813 96.5132 115.873 74C117.328 58.221 113.38 45.0779 103.99 32.4727C96.6758 23.9307 87.3067 20.1989 76.8726 17C75.3876 16.505 75.3876 16.505 73.8726 16C73.8726 10.72 73.8726 5.44 73.8726 0C92.3724 2.67761 108.056 11.5016 119.873 26C123.087 30.4097 125.555 35.0694 127.873 40C128.326 40.9449 128.78 41.8898 129.248 42.8633C135.003 57.6321 133.989 76.9316 128.053 91.4312C116.937 116.202 97.6075 135.522 75.5489 150.828C73.9035 151.978 72.2918 153.176 70.6812 154.375C67.8726 156 67.8726 156 65.8452 155.969C38.1414 142.364 13.886 114.647 2.87259 86C-1.38537 71.8884 -1.06365 54.5101 4.87259 41C5.47394 39.5034 5.47394 39.5034 6.08744 37.9766C9.84676 29.499 15.3701 23.437 21.8726 17C22.5313 16.3194 23.19 15.6388 23.8687 14.9375C32.671 6.45697 46.6127 0 58.8726 0Z" fill="#0444E6"/>
<path d="M77.9312 40.8322C83.7642 44.3414 89.5606 49.163 92.2788 55.5431C94.3783 64.2313 93.9948 73.1468 89.4273 80.9142C85.5347 86.1369 80.8756 89.4936 74.8726 92.0002C65.9484 93.1377 57.4424 93.2887 49.8921 87.8478C44.5362 82.9477 40.3674 77.3904 39.5366 70.0197C39.4324 61.4644 40.0524 54.3219 45.896 47.7111C54.7942 39.3595 66.2213 35.6251 77.9312 40.8322ZM55.4976 60.7502C54.5139 64.2915 54.7877 67.5395 55.8726 71.0002C59.0688 74.8521 61.1214 76.8318 66.1226 77.3127C70.5761 76.9415 72.506 75.897 75.8726 73.0002C77.9753 69.3682 78.4651 66.1478 77.8726 62.0002C76.0437 59.0766 74.0051 56.5664 70.8726 55.0002C63.9113 54.1659 59.9724 55.0549 55.4976 60.7502Z" fill="#0343E6"/>
<path d="M70.8726 55.0003C74.2086 57.0587 75.6988 58.7396 77.8726 62.0003C78.2277 66.8623 77.519 70.2047 74.4351 74.0003C70.3773 77.1674 68.0364 77.3504 62.8726 77.0003C59.4161 75.5863 58.1059 74.3426 55.9976 71.2503C54.6171 67.2623 54.7657 65.0588 55.8726 61.0003C60.0104 54.8603 63.7401 54.0871 70.8726 55.0003Z" fill="#F2EFE8"/>
</svg>
