<svg width="113" height="60" viewBox="0 0 113 60" fill="none" xmlns="http://www.w3.org/2000/svg">
<path d="M25.7663 16.04L15.1663 44H11.9663L1.36625 16.04H4.40625L13.5663 40.96L22.8063 16.04H25.7663ZM31.3734 18.04C30.8134 18.04 30.3334 17.84 29.9334 17.44C29.5334 17.04 29.3334 16.5467 29.3334 15.96C29.3334 15.3733 29.5334 14.8933 29.9334 14.52C30.3334 14.12 30.8134 13.92 31.3734 13.92C31.9334 13.92 32.4134 14.12 32.8134 14.52C33.2134 14.8933 33.4134 15.3733 33.4134 15.96C33.4134 16.5467 33.2134 17.04 32.8134 17.44C32.4134 17.84 31.9334 18.04 31.3734 18.04ZM32.7734 22.16V44H29.9734V22.16H32.7734ZM37.8341 33.04C37.8341 30.8 38.2741 28.84 39.1541 27.16C40.0607 25.4533 41.3007 24.1467 42.8741 23.24C44.4741 22.3067 46.2741 21.84 48.2741 21.84C50.3541 21.84 52.1407 22.32 53.6341 23.28C55.1541 24.24 56.2474 25.4667 56.9141 26.96V22.16H59.7141V44H56.9141V39.16C56.2207 40.6533 55.1141 41.8933 53.5941 42.88C52.1007 43.84 50.3141 44.32 48.2341 44.32C46.2607 44.32 44.4741 43.8533 42.8741 42.92C41.3007 41.9867 40.0607 40.6667 39.1541 38.96C38.2741 37.2533 37.8341 35.28 37.8341 33.04ZM56.9141 33.08C56.9141 31.32 56.5541 29.7733 55.8341 28.44C55.1141 27.1067 54.1274 26.08 52.8741 25.36C51.6474 24.64 50.2874 24.28 48.7941 24.28C47.2474 24.28 45.8607 24.6267 44.6341 25.32C43.4074 26.0133 42.4341 27.0267 41.7141 28.36C41.0207 29.6667 40.6741 31.2267 40.6741 33.04C40.6741 34.8267 41.0207 36.4 41.7141 37.76C42.4341 39.0933 43.4074 40.12 44.6341 40.84C45.8607 41.5333 47.2474 41.88 48.7941 41.88C50.2874 41.88 51.6474 41.52 52.8741 40.8C54.1274 40.08 55.1141 39.0533 55.8341 37.72C56.5541 36.3867 56.9141 34.84 56.9141 33.08Z" fill="black"/>
<path d="M81.0663 16.2V36.24C81.0663 38.72 80.3063 40.68 78.7863 42.12C77.2929 43.56 75.3196 44.28 72.8663 44.28C70.4129 44.28 68.4263 43.56 66.9063 42.12C65.4129 40.68 64.6663 38.72 64.6663 36.24H69.2663C69.2929 37.4667 69.5996 38.44 70.1863 39.16C70.7996 39.88 71.6929 40.24 72.8663 40.24C74.0396 40.24 74.9329 39.88 75.5463 39.16C76.1596 38.4133 76.4663 37.44 76.4663 36.24V16.2H81.0663ZM86.9644 32.88C86.9644 30.6667 87.4177 28.7067 88.3244 27C89.2577 25.2933 90.511 23.9733 92.0844 23.04C93.6844 22.08 95.4444 21.6 97.3644 21.6C99.0977 21.6 100.604 21.9467 101.884 22.64C103.191 23.3067 104.231 24.1467 105.004 25.16V21.96H109.604V44H105.004V40.72C104.231 41.76 103.178 42.6267 101.844 43.32C100.511 44.0133 98.991 44.36 97.2844 44.36C95.391 44.36 93.6577 43.88 92.0844 42.92C90.511 41.9333 89.2577 40.5733 88.3244 38.84C87.4177 37.08 86.9644 35.0933 86.9644 32.88ZM105.004 32.96C105.004 31.44 104.684 30.12 104.044 29C103.431 27.88 102.618 27.0267 101.604 26.44C100.591 25.8533 99.4977 25.56 98.3244 25.56C97.151 25.56 96.0577 25.8533 95.0444 26.44C94.031 27 93.2044 27.84 92.5644 28.96C91.951 30.0533 91.6444 31.36 91.6444 32.88C91.6444 34.4 91.951 35.7333 92.5644 36.88C93.2044 38.0267 94.031 38.9067 95.0444 39.52C96.0844 40.1067 97.1777 40.4 98.3244 40.4C99.4977 40.4 100.591 40.1067 101.604 39.52C102.618 38.9333 103.431 38.08 104.044 36.96C104.684 35.8133 105.004 34.48 105.004 32.96ZM103.164 16.04L94.3244 20.4V17.04L103.164 12.16V16.04Z" fill="#3700FF"/>
</svg>
