<svg width="83" height="89" viewBox="0 0 83 89" fill="none" xmlns="http://www.w3.org/2000/svg">
<path d="M42.3009 0C43.4122 0.975856 44.5221 1.95337 45.6315 2.93157C46.5588 3.74783 46.5588 3.74783 47.5049 4.58058C50.2369 7.05538 52.7877 9.69655 55.3311 12.3756C55.8277 12.8941 56.3243 13.4127 56.8359 13.947C58.0363 15.2011 59.2334 16.4585 60.4298 17.7166C59.0502 21.011 58.4265 21.8776 55.394 23.9696C54.2645 22.7101 54.2645 22.7101 53.1121 21.4252C52.1109 20.3403 51.109 19.2562 50.1064 18.1726C49.3644 17.3393 49.3644 17.3393 48.6075 16.4892C46.9815 14.692 46.9815 14.692 44.3152 12.5059C41.0592 12.8159 39.4011 14.0786 37.148 16.4407C36.5636 17.0456 35.9791 17.6506 35.3769 18.274C34.7588 18.9297 34.1408 19.5854 33.5039 20.261C32.54 21.265 32.54 21.265 31.5567 22.2893C29.5075 24.4271 27.4692 26.5755 25.4309 28.7244C24.0428 30.1764 22.654 31.6277 21.2645 33.0782C17.8613 36.6342 14.4676 40.1997 11.0788 43.7705C13.1888 47.5253 15.2947 50.45 18.3178 53.4756C19.0383 54.2023 19.7589 54.9291 20.5013 55.6779C21.0479 56.2193 21.5945 56.7607 22.1576 57.3185C20.778 60.6129 20.1543 61.4795 17.1218 63.5714C11.4716 57.7249 5.82141 51.8785 0 45.8548C1.81709 42.0944 3.13856 40.268 5.94118 37.3863C7.15081 36.1349 7.15081 36.1349 8.38487 34.8582C9.25569 33.9679 10.1265 33.0775 11.0237 32.1602C11.9151 31.2409 12.8064 30.3215 13.7248 29.3743C16.0889 26.9377 18.4573 24.5057 20.828 22.0758C23.2485 19.5925 25.6633 17.1033 28.0786 14.6146C32.8141 9.73756 37.5553 4.86653 42.3009 0Z" fill="black"/>
<path d="M64.4342 23.1846C71.0464 28.8717 77.0032 35.1514 83 41.5265C81.4955 45.1517 79.5873 47.5168 76.9157 50.2939C76.0898 51.1576 75.264 52.0213 74.4131 52.9112C73.5213 53.833 72.6295 54.7547 71.7107 55.7044C70.7979 56.6562 69.885 57.608 68.9445 58.5887C66.5234 61.1113 64.0979 63.6291 61.6702 66.1447C59.1913 68.7157 56.7183 71.2927 54.2448 73.8693C49.3952 78.9185 44.5398 83.9614 39.6799 88.9997C38.5418 87.9894 37.4051 86.9774 36.269 85.9647C35.6359 85.4013 35.0028 84.8379 34.3504 84.2575C31.5527 81.6953 28.9403 78.9609 26.3357 76.1873C25.8271 75.6505 25.3186 75.1136 24.7946 74.5605C23.5653 73.2621 22.3393 71.9603 21.1141 70.6578C22.527 67.2471 23.1657 66.3499 26.2712 64.1842C27.0424 65.0534 27.8136 65.9227 28.6081 66.8183C29.6334 67.9415 30.6595 69.0639 31.6863 70.1857C32.1928 70.7608 32.6994 71.3359 33.2213 71.9285C34.8865 73.7891 34.8865 73.7891 37.617 76.0525C40.9515 75.7314 42.6495 74.4242 44.9569 71.9788C45.5554 71.3524 46.154 70.7261 46.7706 70.0808C47.7201 69.0625 47.7201 69.0625 48.6888 68.0237C49.3469 67.3307 50.0049 66.6377 50.683 65.9237C52.7815 63.7105 54.869 61.4862 56.9564 59.2615C58.3779 57.7583 59.8001 56.2558 61.2231 54.754C64.7084 51.0725 68.1838 47.3811 71.6543 43.6844C69.9051 39.7646 67.7988 37.2696 64.821 34.2437C63.9781 33.3814 63.1351 32.5191 62.2666 31.6306C61.6205 30.9797 60.9743 30.3288 60.3085 29.6582C61.4965 26.9954 62.4207 25.2908 64.4342 23.1846Z" fill="black"/>
</svg>
