<svg width="109" height="33" viewBox="0 0 109 33" fill="none" xmlns="http://www.w3.org/2000/svg">
<path d="M24.4 3.87984L13.8 31.8398H10.6L-2.19643e-05 3.87984H3.03998L12.2 28.7998L21.44 3.87984H24.4ZM30.0072 5.87984C29.4472 5.87984 28.9672 5.67984 28.5672 5.27984C28.1672 4.87984 27.9672 4.38651 27.9672 3.79984C27.9672 3.21318 28.1672 2.73318 28.5672 2.35984C28.9672 1.95984 29.4472 1.75984 30.0072 1.75984C30.5672 1.75984 31.0472 1.95984 31.4472 2.35984C31.8472 2.73318 32.0472 3.21318 32.0472 3.79984C32.0472 4.38651 31.8472 4.87984 31.4472 5.27984C31.0472 5.67984 30.5672 5.87984 30.0072 5.87984ZM31.4072 9.99984V31.8398H28.6072V9.99984H31.4072ZM36.4678 20.8798C36.4678 18.6398 36.9078 16.6798 37.7878 14.9998C38.6945 13.2932 39.9345 11.9865 41.5078 11.0798C43.1078 10.1465 44.9078 9.67984 46.9078 9.67984C48.9878 9.67984 50.7745 10.1598 52.2678 11.1198C53.7878 12.0798 54.8811 13.3065 55.5478 14.7998V9.99984H58.3478V31.8398H55.5478V26.9998C54.8545 28.4932 53.7478 29.7332 52.2278 30.7198C50.7345 31.6798 48.9478 32.1598 46.8678 32.1598C44.8945 32.1598 43.1078 31.6932 41.5078 30.7598C39.9345 29.8265 38.6945 28.5065 37.7878 26.7998C36.9078 25.0932 36.4678 23.1198 36.4678 20.8798ZM55.5478 20.9198C55.5478 19.1598 55.1878 17.6132 54.4678 16.2798C53.7478 14.9465 52.7611 13.9198 51.5078 13.1998C50.2811 12.4798 48.9211 12.1198 47.4278 12.1198C45.8811 12.1198 44.4945 12.4665 43.2678 13.1598C42.0411 13.8532 41.0678 14.8665 40.3478 16.1998C39.6545 17.5065 39.3078 19.0665 39.3078 20.8798C39.3078 22.6665 39.6545 24.2398 40.3478 25.5998C41.0678 26.9332 42.0411 27.9598 43.2678 28.6798C44.4945 29.3732 45.8811 29.7198 47.4278 29.7198C48.9211 29.7198 50.2811 29.3598 51.5078 28.6398C52.7611 27.9198 53.7478 26.8932 54.4678 25.5598C55.1878 24.2265 55.5478 22.6798 55.5478 20.9198ZM79.7 4.03984V24.0798C79.7 26.5598 78.94 28.5198 77.42 29.9598C75.9266 31.3998 73.9533 32.1198 71.5 32.1198C69.0466 32.1198 67.06 31.3998 65.54 29.9598C64.0466 28.5198 63.3 26.5598 63.3 24.0798H67.9C67.9266 25.3065 68.2333 26.2798 68.82 26.9998C69.4333 27.7198 70.3266 28.0798 71.5 28.0798C72.6733 28.0798 73.5666 27.7198 74.18 26.9998C74.7933 26.2532 75.1 25.2798 75.1 24.0798V4.03984H79.7ZM85.5981 20.7198C85.5981 18.5065 86.0514 16.5465 86.9581 14.8398C87.8914 13.1332 89.1448 11.8132 90.7181 10.8798C92.3181 9.91984 94.0781 9.43984 95.9981 9.43984C97.7314 9.43984 99.2381 9.78651 100.518 10.4798C101.825 11.1465 102.865 11.9865 103.638 12.9998V9.79984H108.238V31.8398H103.638V28.5598C102.865 29.5998 101.811 30.4665 100.478 31.1598C99.1448 31.8532 97.6248 32.1998 95.9181 32.1998C94.0248 32.1998 92.2914 31.7198 90.7181 30.7598C89.1448 29.7732 87.8914 28.4132 86.9581 26.6798C86.0514 24.9198 85.5981 22.9332 85.5981 20.7198ZM103.638 20.7998C103.638 19.2798 103.318 17.9598 102.678 16.8398C102.065 15.7198 101.251 14.8665 100.238 14.2798C99.2248 13.6932 98.1314 13.3998 96.9581 13.3998C95.7848 13.3998 94.6914 13.6932 93.6781 14.2798C92.6648 14.8398 91.8381 15.6798 91.1981 16.7998C90.5848 17.8932 90.2781 19.1998 90.2781 20.7198C90.2781 22.2398 90.5848 23.5732 91.1981 24.7198C91.8381 25.8665 92.6648 26.7465 93.6781 27.3598C94.7181 27.9465 95.8114 28.2398 96.9581 28.2398C98.1314 28.2398 99.2248 27.9465 100.238 27.3598C101.251 26.7732 102.065 25.9198 102.678 24.7998C103.318 23.6532 103.638 22.3198 103.638 20.7998ZM101.798 3.87984L92.9581 8.23984V4.87984L101.798 -0.000158787V3.87984Z" fill="#F9F9F9"/>
</svg>
