<svg width="122" height="37" viewBox="0 0 122 37" fill="none" xmlns="http://www.w3.org/2000/svg">
<path d="M27.45 4.36482L15.525 35.8198H11.925L4.39547e-05 4.36482H3.42004L13.725 32.3998L24.12 4.36482H27.45ZM33.7581 6.61482C33.1281 6.61482 32.5881 6.38982 32.1381 5.93982C31.6881 5.48982 31.4631 4.93482 31.4631 4.27482C31.4631 3.61482 31.6881 3.07482 32.1381 2.65482C32.5881 2.20482 33.1281 1.97982 33.7581 1.97982C34.3881 1.97982 34.9281 2.20482 35.3781 2.65482C35.8281 3.07482 36.0531 3.61482 36.0531 4.27482C36.0531 4.93482 35.8281 5.48982 35.3781 5.93982C34.9281 6.38982 34.3881 6.61482 33.7581 6.61482ZM35.3331 11.2498V35.8198H32.1831V11.2498H35.3331ZM41.0263 23.4898C41.0263 20.9698 41.5213 18.7648 42.5113 16.8748C43.5313 14.9548 44.9263 13.4848 46.6963 12.4648C48.4963 11.4148 50.5213 10.8898 52.7713 10.8898C55.1113 10.8898 57.1213 11.4298 58.8013 12.5098C60.5113 13.5898 61.7413 14.9698 62.4913 16.6498V11.2498H65.6413V35.8198H62.4913V30.3748C61.7113 32.0548 60.4663 33.4498 58.7563 34.5598C57.0763 35.6398 55.0663 36.1798 52.7263 36.1798C50.5063 36.1798 48.4963 35.6548 46.6963 34.6048C44.9263 33.5548 43.5313 32.0698 42.5113 30.1498C41.5213 28.2298 41.0263 26.0098 41.0263 23.4898ZM62.4913 23.5348C62.4913 21.5548 62.0863 19.8148 61.2763 18.3148C60.4663 16.8148 59.3563 15.6598 57.9463 14.8498C56.5663 14.0398 55.0363 13.6348 53.3563 13.6348C51.6163 13.6348 50.0563 14.0248 48.6763 14.8048C47.2963 15.5848 46.2013 16.7248 45.3913 18.2248C44.6113 19.6948 44.2213 21.4498 44.2213 23.4898C44.2213 25.4998 44.6113 27.2698 45.3913 28.7998C46.2013 30.2998 47.2963 31.4548 48.6763 32.2648C50.0563 33.0448 51.6163 33.4348 53.3563 33.4348C55.0363 33.4348 56.5663 33.0298 57.9463 32.2198C59.3563 31.4098 60.4663 30.2548 61.2763 28.7548C62.0863 27.2548 62.4913 25.5148 62.4913 23.5348Z" fill="black"/>
<path d="M89.6625 4.54482V27.0898C89.6625 29.8798 88.8075 32.0848 87.0975 33.7048C85.4175 35.3248 83.1975 36.1348 80.4375 36.1348C77.6775 36.1348 75.4425 35.3248 73.7325 33.7048C72.0525 32.0848 71.2125 29.8798 71.2125 27.0898H76.3875C76.4175 28.4698 76.7625 29.5648 77.4225 30.3748C78.1125 31.1848 79.1175 31.5898 80.4375 31.5898C81.7575 31.5898 82.7625 31.1848 83.4525 30.3748C84.1425 29.5348 84.4875 28.4398 84.4875 27.0898V4.54482H89.6625ZM96.2979 23.3098C96.2979 20.8198 96.8079 18.6148 97.8279 16.6948C98.8779 14.7748 100.288 13.2898 102.058 12.2398C103.858 11.1598 105.838 10.6198 107.998 10.6198C109.948 10.6198 111.643 11.0098 113.083 11.7898C114.553 12.5398 115.723 13.4848 116.593 14.6248V11.0248H121.768V35.8198H116.593V32.1298C115.723 33.2998 114.538 34.2748 113.038 35.0548C111.538 35.8348 109.828 36.2248 107.908 36.2248C105.778 36.2248 103.828 35.6848 102.058 34.6048C100.288 33.4948 98.8779 31.9648 97.8279 30.0148C96.8079 28.0348 96.2979 25.7998 96.2979 23.3098ZM116.593 23.3998C116.593 21.6898 116.233 20.2048 115.513 18.9448C114.823 17.6848 113.908 16.7248 112.768 16.0648C111.628 15.4048 110.398 15.0748 109.078 15.0748C107.758 15.0748 106.528 15.4048 105.388 16.0648C104.248 16.6948 103.318 17.6398 102.598 18.8998C101.908 20.1298 101.563 21.5998 101.563 23.3098C101.563 25.0198 101.908 26.5198 102.598 27.8098C103.318 29.0998 104.248 30.0898 105.388 30.7798C106.558 31.4398 107.788 31.7698 109.078 31.7698C110.398 31.7698 111.628 31.4398 112.768 30.7798C113.908 30.1198 114.823 29.1598 115.513 27.8998C116.233 26.6098 116.593 25.1098 116.593 23.3998ZM114.523 4.36482L104.578 9.26982V5.48982L114.523 -0.000178635V4.36482Z" fill="#3700FF"/>
</svg>
